<svg width="323" height="72" viewBox="0 0 878 252" fill="none" xmlns="http://www.w3.org/2000/svg">
<mask id="path-1-inside-1" fill="white">
<path d="M200.135 144.855C200.135 132.37 197.178 120.061 191.507 108.938C185.835 97.8147 177.61 88.1927 167.505 80.8595C157.399 73.5263 145.701 68.6905 133.367 66.7479C121.033 64.8053 108.415 65.8111 96.5446 69.683C84.6744 73.5549 73.8898 80.1829 65.0736 89.0243C56.2575 97.8657 49.6605 108.669 45.8225 120.551C41.9846 132.432 41.0149 145.053 42.9928 157.381C44.9708 169.709 49.8401 181.394 57.2021 191.478L121.065 144.855H200.135Z"/>
</mask>
<path d="M200.135 144.855C200.135 132.37 197.178 120.061 191.507 108.938C185.835 97.8147 177.61 88.1927 167.505 80.8595C157.399 73.5263 145.701 68.6905 133.367 66.7479C121.033 64.8053 108.415 65.8111 96.5446 69.683C84.6744 73.5549 73.8898 80.1829 65.0736 89.0243C56.2575 97.8657 49.6605 108.669 45.8225 120.551C41.9846 132.432 41.0149 145.053 42.9928 157.381C44.9708 169.709 49.8401 181.394 57.2021 191.478L121.065 144.855H200.135Z" stroke="#827333" mask="url(#path-1-inside-1)"/>
<circle cx="121.065" cy="144.855" r="78.082" fill="white"/>
<circle cx="121.065" cy="144.856" r="75.1169" fill="#827333" fill-opacity="0.2"/>
<path fill-rule="evenodd" clip-rule="evenodd" d="M211.434 148.585C211.434 148.723 211.322 148.835 211.184 148.835L20.25 148.815C20.1119 148.815 20 148.703 20 148.565C20 148.427 20.112 148.315 20.25 148.315L211.184 148.335C211.322 148.335 211.434 148.447 211.434 148.585Z" fill="#827333"/>
<path fill-rule="evenodd" clip-rule="evenodd" d="M119.064 26C119.203 26 119.314 26.1119 119.314 26.25V147.798C119.314 147.936 119.203 148.048 119.064 148.048C118.926 148.048 118.814 147.936 118.814 147.798V26.25C118.814 26.1119 118.926 26 119.064 26Z" fill="#827333"/>
<path fill-rule="evenodd" clip-rule="evenodd" d="M121.286 66.24V223.762C121.286 225.136 120.159 226.25 118.768 226.25C117.377 226.25 116.25 225.136 116.25 223.762V63.8932C116.25 62.6059 117.245 61.5313 118.543 61.4161C131.195 60.2928 152.544 64.7602 170.753 78.0924C189.101 91.5257 204.25 113.953 204.25 148.57L204.25 148.608C203.914 170.159 189.769 215.869 135.841 226.204C134.475 226.466 133.154 225.585 132.889 224.236C132.624 222.888 133.516 221.582 134.881 221.321C185.569 211.607 198.891 168.781 199.214 148.55C199.208 115.6 184.883 94.6294 167.754 82.0884C151.593 70.2557 132.925 65.9214 121.286 66.24Z" fill="#656565"/>
<path d="M222.741 129.446C222.189 129.446 221.741 129.894 221.741 130.446V143.692C221.741 144.244 222.189 144.692 222.741 144.692H235.557C236.912 144.692 238.01 145.79 238.01 147.145V147.145C238.01 148.5 236.912 149.599 235.557 149.599H222.741C222.189 149.599 221.741 150.047 221.741 150.599V164.302C221.741 164.855 222.189 165.302 222.741 165.302H237.478C238.833 165.302 239.932 166.401 239.932 167.756V167.756C239.932 169.111 238.833 170.209 237.478 170.209H217.912C216.808 170.209 215.912 169.314 215.912 168.209V126.539C215.912 125.435 216.808 124.539 217.912 124.539H237.478C238.833 124.539 239.932 125.638 239.932 126.993V126.993C239.932 128.348 238.833 129.446 237.478 129.446H222.741Z" fill="#656565"/>
<path d="M254.58 164.368C254.58 164.92 255.028 165.368 255.58 165.368H268.209C269.314 165.368 270.209 166.263 270.209 167.368V168.209C270.209 169.314 269.314 170.209 268.209 170.209H249.752C249.199 170.209 248.752 169.762 248.752 169.209V126.605C248.752 125.5 249.647 124.605 250.752 124.605H252.58C253.685 124.605 254.58 125.5 254.58 126.605V164.368Z" fill="#656565"/>
<path d="M301.878 124.605C302.982 124.605 303.878 125.5 303.878 126.605V127.446C303.878 128.551 302.982 129.446 301.878 129.446H292.708C292.156 129.446 291.708 129.894 291.708 130.446V168.209C291.708 169.314 290.812 170.209 289.708 170.209H287.879C286.775 170.209 285.879 169.314 285.879 168.209V130.446C285.879 129.894 285.431 129.446 284.879 129.446H275.645C274.54 129.446 273.645 128.551 273.645 127.446V126.605C273.645 125.5 274.54 124.605 275.645 124.605H301.878Z" fill="#656565"/>
<path d="M337.678 160.734C337.537 160.335 337.159 160.068 336.735 160.068H318.677C318.254 160.068 317.876 160.335 317.735 160.734L314.855 168.876C314.572 169.675 313.817 170.209 312.969 170.209H311.069C309.687 170.209 308.722 168.841 309.185 167.539L323.902 126.196C324.186 125.399 324.941 124.866 325.787 124.866H329.688C330.535 124.866 331.29 125.4 331.573 126.198L346.232 167.541C346.694 168.843 345.728 170.209 344.347 170.209H342.443C341.596 170.209 340.84 169.675 340.558 168.876L337.678 160.734ZM334.367 155.226C335.056 155.226 335.539 154.546 335.311 153.895L328.65 134.888C328.337 133.995 327.075 133.995 326.763 134.888L320.102 153.895C319.874 154.546 320.357 155.226 321.046 155.226H334.367Z" fill="#656565"/>
<path d="M406.39 168.209C406.39 169.314 405.495 170.209 404.39 170.209H401.651C400.972 170.209 400.339 169.865 399.971 169.294L378.038 135.321C377.768 134.902 377.118 135.094 377.118 135.592V168.209C377.118 169.314 376.223 170.209 375.118 170.209H373.29C372.185 170.209 371.29 169.314 371.29 168.209V126.539C371.29 125.435 372.185 124.539 373.29 124.539H376.03C376.709 124.539 377.341 124.883 377.709 125.453L399.642 159.365C399.912 159.784 400.562 159.592 400.562 159.094V126.539C400.562 125.435 401.457 124.539 402.562 124.539H404.39C405.495 124.539 406.39 125.435 406.39 126.539V168.209Z" fill="#656565"/>
<path d="M442.952 160.734C442.81 160.335 442.433 160.068 442.009 160.068H423.951C423.527 160.068 423.15 160.335 423.008 160.734L420.129 168.876C419.846 169.675 419.091 170.209 418.243 170.209H416.343C414.961 170.209 413.995 168.841 414.459 167.539L429.176 126.196C429.46 125.399 430.214 124.866 431.06 124.866H434.962C435.809 124.866 436.564 125.4 436.847 126.198L451.506 167.541C451.967 168.843 451.002 170.209 449.621 170.209H447.717C446.87 170.209 446.114 169.675 445.831 168.876L442.952 160.734ZM439.641 155.226C440.33 155.226 440.812 154.546 440.584 153.895L433.924 134.888C433.611 133.995 432.349 133.995 432.036 134.888L425.376 153.895C425.148 154.546 425.63 155.226 426.319 155.226H439.641Z" fill="#656565"/>
<path d="M484.965 124.605C486.07 124.605 486.965 125.5 486.965 126.605V127.446C486.965 128.551 486.07 129.446 484.965 129.446H475.795C475.243 129.446 474.795 129.894 474.795 130.446V168.209C474.795 169.314 473.9 170.209 472.795 170.209H470.967C469.862 170.209 468.967 169.314 468.967 168.209V130.446C468.967 129.894 468.519 129.446 467.967 129.446H458.732C457.628 129.446 456.732 128.551 456.732 127.446V126.605C456.732 125.5 457.628 124.605 458.732 124.605H484.965Z" fill="#656565"/>
<path d="M497.841 124.605C498.945 124.605 499.841 125.5 499.841 126.605V153.459C499.841 157.516 500.802 160.526 502.723 162.489C504.687 164.452 507.399 165.433 510.858 165.433C514.274 165.433 516.943 164.452 518.864 162.489C520.829 160.526 521.811 157.516 521.811 153.459V126.605C521.811 125.5 522.706 124.605 523.811 124.605H525.64C526.744 124.605 527.64 125.5 527.64 126.605V153.394C527.64 157.189 526.892 160.395 525.398 163.012C523.903 165.586 521.875 167.505 519.313 168.77C516.793 170.035 513.954 170.668 510.794 170.668C507.634 170.668 504.773 170.035 502.211 168.77C499.691 167.505 497.684 165.586 496.19 163.012C494.738 160.395 494.012 157.189 494.012 153.394V126.605C494.012 125.5 494.907 124.605 496.012 124.605H497.841Z" fill="#656565"/>
<path d="M562.032 170.209C561.314 170.209 560.651 169.824 560.295 169.2L550.525 152.067C550.347 151.755 550.016 151.562 549.657 151.562H544.192C543.64 151.562 543.192 152.01 543.192 152.562V168.209C543.192 169.314 542.296 170.209 541.192 170.209H539.363C538.258 170.209 537.363 169.314 537.363 168.209V126.605C537.363 125.5 538.258 124.605 539.363 124.605H551.775C555.148 124.605 557.988 125.194 560.294 126.371C562.642 127.549 564.393 129.141 565.546 131.148C566.699 133.154 567.276 135.444 567.276 138.018C567.276 141.158 566.379 143.928 564.585 146.327C562.835 148.727 560.187 150.319 556.643 151.104L566.085 167.197C566.867 168.531 565.906 170.209 564.36 170.209H562.032ZM543.192 145.785C543.192 146.338 543.64 146.785 544.192 146.785H551.775C554.935 146.785 557.305 146 558.885 144.43C560.465 142.816 561.255 140.679 561.255 138.018C561.255 135.313 560.465 133.22 558.885 131.737C557.347 130.253 554.977 129.512 551.775 129.512H544.192C543.64 129.512 543.192 129.96 543.192 130.512V145.785Z" fill="#656565"/>
<path d="M602.722 160.068H583.25L580.135 168.876C579.852 169.675 579.097 170.209 578.249 170.209H576.349C574.967 170.209 574.001 168.841 574.465 167.539L589.182 126.196C589.466 125.399 590.22 124.866 591.066 124.866H594.968C595.815 124.866 596.57 125.4 596.853 126.198L611.512 167.541C611.973 168.843 611.008 170.209 609.627 170.209H607.723C606.876 170.209 606.12 169.675 605.838 168.876L602.722 160.068ZM599.647 155.226C600.336 155.226 600.818 154.546 600.59 153.895L593.93 134.888C593.617 133.995 592.355 133.995 592.042 134.888L585.382 153.895C585.154 154.546 585.637 155.226 586.326 155.226H599.647Z" fill="#656565"/>
<path d="M625.322 164.368C625.322 164.92 625.769 165.368 626.322 165.368H638.95C640.055 165.368 640.95 166.263 640.95 167.368V168.209C640.95 169.314 640.055 170.209 638.95 170.209H621.493C620.388 170.209 619.493 169.314 619.493 168.209V126.605C619.493 125.5 620.388 124.605 621.493 124.605H623.322C624.426 124.605 625.322 125.5 625.322 126.605V164.368Z" fill="#656565"/>
<path d="M699.318 168.209C699.318 169.314 698.422 170.209 697.318 170.209H694.578C693.899 170.209 693.266 169.865 692.898 169.294L670.966 135.321C670.695 134.902 670.046 135.094 670.046 135.592V168.209C670.046 169.314 669.15 170.209 668.046 170.209H666.217C665.112 170.209 664.217 169.314 664.217 168.209V126.539C664.217 125.435 665.112 124.539 666.217 124.539H668.957C669.636 124.539 670.268 124.883 670.637 125.453L692.569 159.365C692.84 159.784 693.489 159.592 693.489 159.094V126.539C693.489 125.435 694.384 124.539 695.489 124.539H697.318C698.422 124.539 699.318 125.435 699.318 126.539V168.209Z" fill="#656565"/>
<path d="M729.494 170.668C725.352 170.668 721.573 169.686 718.157 167.723C714.741 165.717 712.029 162.947 710.022 159.414C708.058 155.837 707.076 151.824 707.076 147.374C707.076 142.925 708.058 138.934 710.022 135.401C712.029 131.824 714.741 129.054 718.157 127.091C721.573 125.084 725.352 124.081 729.494 124.081C733.679 124.081 737.48 125.084 740.896 127.091C744.312 129.054 747.002 131.802 748.966 135.335C750.931 138.868 751.913 142.881 751.913 147.374C751.913 151.867 750.931 155.88 748.966 159.414C747.002 162.947 744.312 165.717 740.896 167.723C737.48 169.686 733.679 170.668 729.494 170.668ZM729.494 165.499C732.612 165.499 735.409 164.757 737.885 163.274C740.405 161.791 742.369 159.675 743.778 156.927C745.23 154.179 745.956 150.995 745.956 147.374C745.956 143.71 745.23 140.526 743.778 137.822C742.369 135.073 740.426 132.958 737.949 131.475C735.473 129.992 732.654 129.25 729.494 129.25C726.334 129.25 723.516 129.992 721.04 131.475C718.563 132.958 716.599 135.073 715.147 137.822C713.738 140.526 713.033 143.71 713.033 147.374C713.033 150.995 713.738 154.179 715.147 156.927C716.599 159.675 718.563 161.791 721.04 163.274C723.559 164.757 726.377 165.499 729.494 165.499Z" fill="#656565"/>
<path d="M784.277 170.209C783.558 170.209 782.895 169.824 782.539 169.2L772.482 151.562H765.436V168.209C765.436 169.314 764.541 170.209 763.436 170.209H761.608C760.503 170.209 759.608 169.314 759.608 168.209V126.605C759.608 125.5 760.503 124.605 761.608 124.605H774.019C777.393 124.605 780.232 125.194 782.538 126.371C784.887 127.549 786.638 129.141 787.791 131.148C788.944 133.154 789.52 135.444 789.52 138.018C789.52 141.158 788.623 143.928 786.83 146.327C785.079 148.727 782.432 150.319 778.887 151.104L788.329 167.197C789.112 168.531 788.15 170.209 786.604 170.209H784.277ZM765.436 145.785C765.436 146.338 765.884 146.785 766.436 146.785H774.019C777.179 146.785 779.549 146 781.129 144.43C782.709 142.816 783.499 140.679 783.499 138.018C783.499 135.313 782.709 133.22 781.129 131.737C779.592 130.253 777.222 129.512 774.019 129.512H766.436C765.884 129.512 765.436 129.96 765.436 130.512V145.785Z" fill="#656565"/>
<path d="M824.055 124.605C825.16 124.605 826.055 125.5 826.055 126.605V127.446C826.055 128.551 825.16 129.446 824.055 129.446H814.886C814.333 129.446 813.886 129.894 813.886 130.446V168.209C813.886 169.314 812.99 170.209 811.886 170.209H810.057C808.952 170.209 808.057 169.314 808.057 168.209V130.446C808.057 129.894 807.609 129.446 807.057 129.446H797.823C796.718 129.446 795.823 128.551 795.823 127.446V126.605C795.823 125.5 796.718 124.605 797.823 124.605H824.055Z" fill="#656565"/>
<path d="M840.059 129.446C839.507 129.446 839.059 129.894 839.059 130.446V143.692C839.059 144.244 839.507 144.692 840.059 144.692H853.328C854.433 144.692 855.328 145.587 855.328 146.692V147.599C855.328 148.704 854.433 149.599 853.328 149.599H840.059C839.507 149.599 839.059 150.047 839.059 150.599V164.302C839.059 164.855 839.507 165.302 840.059 165.302H855.25C856.355 165.302 857.25 166.198 857.25 167.302V168.209C857.25 169.314 856.355 170.209 855.25 170.209H835.23C834.126 170.209 833.23 169.314 833.23 168.209V126.539C833.23 125.435 834.126 124.539 835.23 124.539H855.25C856.355 124.539 857.25 125.435 857.25 126.539V127.446C857.25 128.551 856.355 129.446 855.25 129.446H840.059Z" fill="#656565"/>
<path d="M234.083 201.477C234.083 203.905 233.284 205.861 231.685 207.345C230.086 208.828 227.687 209.57 224.49 209.57H218.758V221.629H215.912V193.343H224.49C227.66 193.343 230.045 194.085 231.644 195.569C233.27 197.053 234.083 199.022 234.083 201.477ZM224.49 207.142C228.934 207.142 231.156 205.254 231.156 201.477C231.156 199.589 230.628 198.159 229.571 197.188C228.514 196.217 226.82 195.731 224.49 195.731H218.758V207.142H224.49Z" fill="#A89D70"/>
<path d="M252.842 221.912C250.213 221.912 247.828 221.305 245.687 220.091C243.546 218.85 241.852 217.137 240.606 214.952C239.386 212.74 238.776 210.245 238.776 207.466C238.776 204.687 239.386 202.206 240.606 200.02C241.852 197.808 243.546 196.095 245.687 194.881C247.828 193.64 250.213 193.02 252.842 193.02C255.498 193.02 257.896 193.64 260.037 194.881C262.178 196.095 263.858 197.808 265.078 200.02C266.297 202.206 266.907 204.687 266.907 207.466C266.907 210.245 266.297 212.74 265.078 214.952C263.858 217.137 262.178 218.85 260.037 220.091C257.896 221.305 255.498 221.912 252.842 221.912ZM252.842 219.444C254.956 219.444 256.853 218.958 258.533 217.987C260.213 217.016 261.541 215.627 262.517 213.819C263.492 211.985 263.98 209.867 263.98 207.466C263.98 205.065 263.492 202.961 262.517 201.153C261.541 199.346 260.213 197.957 258.533 196.985C256.853 196.014 254.956 195.529 252.842 195.529C250.728 195.529 248.831 196.014 247.151 196.985C245.47 197.957 244.142 199.346 243.167 201.153C242.191 202.961 241.703 205.065 241.703 207.466C241.703 209.867 242.191 211.985 243.167 213.819C244.142 215.627 245.47 217.016 247.151 217.987C248.831 218.958 250.728 219.444 252.842 219.444Z" fill="#A89D70"/>
<path d="M289.959 193.343V195.691H282.073V221.629H279.228V195.691H271.301V193.343H289.959Z" fill="#A89D70"/>
<path d="M298.518 195.65V206.212H309.29V208.559H298.518V219.282H310.51V221.629H295.672V193.303H310.51V195.65H298.518Z" fill="#A89D70"/>
<path d="M338.759 221.629H335.914L320.182 197.835V221.629H317.336V193.343H320.182L335.914 217.097V193.343H338.759V221.629Z" fill="#A89D70"/>
<path d="M345.123 207.466C345.123 204.687 345.733 202.206 346.952 200.02C348.172 197.808 349.838 196.095 351.952 194.881C354.066 193.64 356.424 193.02 359.025 193.02C362.196 193.02 364.906 193.775 367.156 195.286C369.432 196.77 371.085 198.874 372.115 201.599H368.782C367.969 199.683 366.722 198.186 365.042 197.107C363.389 196.028 361.383 195.488 359.025 195.488C356.939 195.488 355.055 195.974 353.375 196.945C351.722 197.916 350.421 199.319 349.473 201.153C348.524 202.961 348.05 205.065 348.05 207.466C348.05 209.867 348.524 211.971 349.473 213.779C350.421 215.586 351.722 216.976 353.375 217.947C355.055 218.918 356.939 219.403 359.025 219.403C361.383 219.403 363.389 218.877 365.042 217.825C366.722 216.746 367.969 215.262 368.782 213.374H372.115C371.085 216.072 369.432 218.163 367.156 219.646C364.879 221.13 362.169 221.872 359.025 221.872C356.424 221.872 354.066 221.265 351.952 220.051C349.838 218.81 348.172 217.097 346.952 214.912C345.733 212.727 345.123 210.245 345.123 207.466Z" fill="#A89D70"/>
<path d="M381.85 193.343V221.629H379.005V193.343H381.85Z" fill="#A89D70"/>
<path d="M405.977 214.912H393.05L390.57 221.629H387.562L397.928 193.708H401.14L411.465 221.629H408.457L405.977 214.912ZM405.123 212.565L399.514 197.269L393.904 212.565H405.123ZM403.294 187.193L394.961 192.008V189.823L403.294 184.643V187.193Z" fill="#A89D70"/>
<path d="M446.252 193.343V195.691H438.366V221.629H435.52V195.691H427.594V193.343H446.252Z" fill="#A89D70"/>
<path d="M454.689 193.343V211.148C454.689 213.954 455.353 216.031 456.681 217.38C458.036 218.729 459.878 219.403 462.209 219.403C464.54 219.403 466.355 218.743 467.656 217.421C468.984 216.072 469.648 213.981 469.648 211.148V193.343H472.494V211.108C472.494 214.696 471.532 217.394 469.607 219.201C467.71 221.009 465.231 221.912 462.168 221.912C459.106 221.912 456.613 221.009 454.689 219.201C452.792 217.394 451.843 214.696 451.843 211.108V193.343H454.689Z" fill="#A89D70"/>
<path d="M495.28 195.65V206.212H506.053V208.559H495.28V219.282H507.272V221.629H492.435V193.303H507.272V195.65H495.28Z" fill="#A89D70"/>
<path d="M522.717 221.912C520.847 221.912 519.194 221.589 517.757 220.941C516.348 220.294 515.237 219.39 514.424 218.23C513.611 217.07 513.177 215.775 513.123 214.345H516.131C516.267 215.721 516.877 216.935 517.961 217.987C519.045 219.012 520.63 219.525 522.717 219.525C524.641 219.525 526.159 219.039 527.27 218.068C528.408 217.07 528.977 215.816 528.977 214.305C528.977 213.091 528.665 212.12 528.042 211.391C527.419 210.636 526.646 210.083 525.725 209.732C524.804 209.354 523.53 208.95 521.904 208.518C520.007 208.006 518.503 207.507 517.392 207.021C516.28 206.535 515.332 205.78 514.546 204.755C513.76 203.73 513.367 202.34 513.367 200.587C513.367 199.13 513.747 197.835 514.505 196.702C515.264 195.542 516.335 194.638 517.717 193.991C519.099 193.343 520.684 193.02 522.473 193.02C525.102 193.02 527.216 193.667 528.814 194.962C530.44 196.23 531.375 197.876 531.619 199.899H528.53C528.34 198.739 527.703 197.714 526.619 196.824C525.535 195.906 524.072 195.448 522.229 195.448C520.522 195.448 519.099 195.906 517.961 196.824C516.822 197.714 516.253 198.941 516.253 200.506C516.253 201.693 516.565 202.651 517.188 203.379C517.812 204.107 518.584 204.66 519.505 205.038C520.454 205.416 521.728 205.82 523.327 206.252C525.169 206.765 526.66 207.277 527.798 207.79C528.936 208.275 529.898 209.031 530.684 210.056C531.47 211.081 531.863 212.457 531.863 214.183C531.863 215.505 531.511 216.76 530.806 217.947C530.102 219.134 529.058 220.091 527.676 220.82C526.294 221.548 524.641 221.912 522.717 221.912Z" fill="#A89D70"/>
<path d="M556.752 201.477C556.752 203.905 555.953 205.861 554.354 207.345C552.755 208.828 550.357 209.57 547.159 209.57H541.427V221.629H538.581V193.343H547.159C550.33 193.343 552.714 194.085 554.313 195.569C555.939 197.053 556.752 199.022 556.752 201.477ZM547.159 207.142C551.603 207.142 553.826 205.254 553.826 201.477C553.826 199.589 553.297 198.159 552.24 197.188C551.183 196.217 549.489 195.731 547.159 195.731H541.427V207.142H547.159Z" fill="#A89D70"/>
<path d="M579.21 214.912H566.283L563.803 221.629H560.795L571.161 193.708H574.373L584.698 221.629H581.69L579.21 214.912ZM578.356 212.565L572.747 197.269L567.137 212.565H578.356Z" fill="#A89D70"/>
<path d="M589.184 207.466C589.184 204.687 589.793 202.206 591.013 200.02C592.232 197.808 593.899 196.095 596.013 194.881C598.127 193.64 600.484 193.02 603.086 193.02C606.257 193.02 608.967 193.775 611.216 195.286C613.493 196.77 615.146 198.874 616.176 201.599H612.842C612.029 199.683 610.783 198.186 609.102 197.107C607.449 196.028 605.444 195.488 603.086 195.488C600.999 195.488 599.116 195.974 597.436 196.945C595.782 197.916 594.482 199.319 593.533 201.153C592.585 202.961 592.11 205.065 592.11 207.466C592.11 209.867 592.585 211.971 593.533 213.779C594.482 215.586 595.782 216.976 597.436 217.947C599.116 218.918 600.999 219.403 603.086 219.403C605.444 219.403 607.449 218.877 609.102 217.825C610.783 216.746 612.029 215.262 612.842 213.374H616.176C615.146 216.072 613.493 218.163 611.216 219.646C608.94 221.13 606.23 221.872 603.086 221.872C600.484 221.872 598.127 221.265 596.013 220.051C593.899 218.81 592.232 217.097 591.013 214.912C589.793 212.727 589.184 210.245 589.184 207.466Z" fill="#A89D70"/>
<path d="M625.911 193.343V221.629H623.065V193.343H625.911Z" fill="#A89D70"/>
<path d="M646.339 221.912C643.71 221.912 641.325 221.305 639.184 220.091C637.043 218.85 635.349 217.137 634.103 214.952C632.883 212.74 632.273 210.245 632.273 207.466C632.273 204.687 632.883 202.206 634.103 200.02C635.349 197.808 637.043 196.095 639.184 194.881C641.325 193.64 643.71 193.02 646.339 193.02C648.994 193.02 651.393 193.64 653.534 194.881C655.675 196.095 657.355 197.808 658.574 200.02C659.794 202.206 660.404 204.687 660.404 207.466C660.404 210.245 659.794 212.74 658.574 214.952C657.355 217.137 655.675 218.85 653.534 220.091C651.393 221.305 648.994 221.912 646.339 221.912ZM646.339 219.444C648.452 219.444 650.349 218.958 652.03 217.987C653.71 217.016 655.038 215.627 656.013 213.819C656.989 211.985 657.477 209.867 657.477 207.466C657.477 205.065 656.989 202.961 656.013 201.153C655.038 199.346 653.71 197.957 652.03 196.985C650.349 196.014 648.452 195.529 646.339 195.529C644.225 195.529 642.328 196.014 640.647 196.985C638.967 197.957 637.639 199.346 636.664 201.153C635.688 202.961 635.2 205.065 635.2 207.466C635.2 209.867 635.688 211.985 636.664 213.819C637.639 215.627 638.967 217.016 640.647 217.987C642.328 218.958 644.225 219.444 646.339 219.444Z" fill="#A89D70"/>
<path d="M682.05 195.65V206.212H692.823V208.559H682.05V219.282H694.042V221.629H679.205V193.303H694.042V195.65H682.05Z" fill="#A89D70"/>
<path d="M711.113 207.507L719.731 221.629H716.56L709.324 209.813L702.454 221.629H699.283L707.861 207.385L699.283 193.343H702.454L709.649 205.119L716.601 193.343H719.771L711.113 207.507Z" fill="#A89D70"/>
<path d="M742.494 193.343V195.691H734.607V221.629H731.762V195.691H723.835V193.343H742.494Z" fill="#A89D70"/>
<path d="M751.052 195.65V206.212H761.824V208.559H751.052V219.282H763.044V221.629H748.206V193.303H763.044V195.65H751.052Z" fill="#A89D70"/>
<path d="M784.993 221.629L777.96 209.813H772.716V221.629H769.87V193.343H778.407C781.578 193.343 783.976 194.099 785.602 195.61C787.255 197.12 788.082 199.103 788.082 201.558C788.082 203.608 787.486 205.362 786.293 206.819C785.128 208.248 783.394 209.179 781.09 209.611L788.407 221.629H784.993ZM772.716 207.507H778.448C780.67 207.507 782.337 206.967 783.448 205.888C784.586 204.809 785.155 203.366 785.155 201.558C785.155 199.697 784.613 198.267 783.529 197.269C782.445 196.244 780.738 195.731 778.407 195.731H772.716V207.507Z" fill="#A89D70"/>
<path d="M797.794 193.343V221.629H794.948V193.343H797.794Z" fill="#A89D70"/>
<path d="M818.222 221.912C815.593 221.912 813.208 221.305 811.067 220.091C808.926 218.85 807.232 217.137 805.986 214.952C804.766 212.74 804.157 210.245 804.157 207.466C804.157 204.687 804.766 202.206 805.986 200.02C807.232 197.808 808.926 196.095 811.067 194.881C813.208 193.64 815.593 193.02 818.222 193.02C820.878 193.02 823.276 193.64 825.417 194.881C827.558 196.095 829.238 197.808 830.458 200.02C831.677 202.206 832.287 204.687 832.287 207.466C832.287 210.245 831.677 212.74 830.458 214.952C829.238 217.137 827.558 218.85 825.417 220.091C823.276 221.305 820.878 221.912 818.222 221.912ZM818.222 219.444C820.336 219.444 822.233 218.958 823.913 217.987C825.593 217.016 826.921 215.627 827.897 213.819C828.872 211.985 829.36 209.867 829.36 207.466C829.36 205.065 828.872 202.961 827.897 201.153C826.921 199.346 825.593 197.957 823.913 196.985C822.233 196.014 820.336 195.529 818.222 195.529C816.108 195.529 814.211 196.014 812.531 196.985C810.85 197.957 809.522 199.346 808.547 201.153C807.571 202.961 807.083 205.065 807.083 207.466C807.083 209.867 807.571 211.985 808.547 213.819C809.522 215.627 810.85 217.016 812.531 217.987C814.211 218.958 816.108 219.444 818.222 219.444Z" fill="#A89D70"/>
<path d="M853.835 221.629L846.803 209.813H841.559V221.629H838.713V193.343H847.25C850.421 193.343 852.819 194.099 854.445 195.61C856.098 197.12 856.925 199.103 856.925 201.558C856.925 203.608 856.329 205.362 855.136 206.819C853.971 208.248 852.236 209.179 849.933 209.611L857.25 221.629H853.835ZM841.559 207.507H847.291C849.513 207.507 851.18 206.967 852.291 205.888C853.429 204.809 853.998 203.366 853.998 201.558C853.998 199.697 853.456 198.267 852.372 197.269C851.288 196.244 849.581 195.731 847.25 195.731H841.559V207.507Z" fill="#A89D70"/>
</svg>
