<svg width="323" height="72" viewBox="0 0 878 252" fill="none" xmlns="http://www.w3.org/2000/svg">
<circle cx="101.858" cy="134.788" r="78.695" fill="#FFFFFE" fill-opacity="0.2"/>
<path fill-rule="evenodd" clip-rule="evenodd" d="M192.937 138.547C192.937 138.687 192.824 138.799 192.685 138.799L0.251945 138.779C0.112785 138.779 -5.53319e-06 138.667 8.98687e-06 138.527C2.35069e-05 138.388 0.112837 138.275 0.251998 138.275L192.685 138.295C192.824 138.296 192.937 138.408 192.937 138.547Z" fill="white"/>
<path fill-rule="evenodd" clip-rule="evenodd" d="M100.029 15C100.169 15 100.281 15.1128 100.281 15.252V137.754C100.281 137.893 100.169 138.006 100.029 138.006C99.8902 138.006 99.7774 137.893 99.7774 137.754V15.252C99.7774 15.1128 99.8902 15 100.029 15Z" fill="white"/>
<path fill-rule="evenodd" clip-rule="evenodd" d="M102.386 54.8992V214.48C102.386 215.871 101.258 217 99.8664 217C98.4749 217 97.3468 215.871 97.3468 214.48V52.5218C97.3468 51.2176 98.342 50.129 99.6409 50.0123C112.3 48.8744 133.662 53.4001 151.882 66.9065C170.24 80.5153 185.398 103.236 185.398 138.305L185.397 138.343C185.061 160.176 170.908 206.484 116.949 216.953C115.583 217.218 114.26 216.326 113.995 214.96C113.73 213.594 114.623 212.271 115.989 212.006C166.706 202.166 180.035 158.78 180.358 138.285C180.353 104.904 166.019 83.6595 148.881 70.9547C132.71 58.9674 114.031 54.5764 102.386 54.8992Z" fill="white"/>
<path d="M204.325 119.258C203.773 119.258 203.325 119.706 203.325 120.258V133.623C203.325 134.175 203.773 134.623 204.325 134.623H217.249C218.615 134.623 219.722 135.73 219.722 137.096V137.096C219.722 138.462 218.615 139.569 217.249 139.569H204.325C203.773 139.569 203.325 140.017 203.325 140.569V154.395C203.325 154.948 203.773 155.395 204.325 155.395H219.186C220.551 155.395 221.658 156.503 221.658 157.868V157.868C221.658 159.234 220.551 160.341 219.186 160.341H199.45C198.346 160.341 197.45 159.446 197.45 158.341V116.312C197.45 115.208 198.346 114.312 199.45 114.312H219.186C220.551 114.312 221.658 115.42 221.658 116.785V116.785C221.658 118.151 220.551 119.258 219.186 119.258H204.325Z" fill="white"/>
<path d="M236.422 154.461C236.422 155.014 236.87 155.461 237.422 155.461H250.173C251.278 155.461 252.173 156.357 252.173 157.461V158.341C252.173 159.446 251.278 160.341 250.173 160.341H231.547C230.995 160.341 230.547 159.893 230.547 159.341V116.378C230.547 115.274 231.443 114.378 232.547 114.378H234.422C235.527 114.378 236.422 115.274 236.422 116.378V154.461Z" fill="white"/>
<path d="M284.106 114.378C285.211 114.378 286.106 115.274 286.106 116.378V117.258C286.106 118.363 285.211 119.258 284.106 119.258H274.841C274.289 119.258 273.841 119.706 273.841 120.258V158.341C273.841 159.446 272.945 160.341 271.841 160.341H269.966C268.862 160.341 267.966 159.446 267.966 158.341V120.258C267.966 119.706 267.519 119.258 266.966 119.258H257.636C256.532 119.258 255.636 118.363 255.636 117.258V116.378C255.636 115.274 256.532 114.378 257.636 114.378H284.106Z" fill="white"/>
<path d="M320.17 150.786C320.029 150.387 319.651 150.12 319.227 150.12H301.017C300.593 150.12 300.215 150.387 300.074 150.786L297.166 159.008C296.883 159.807 296.128 160.341 295.28 160.341H293.332C291.95 160.341 290.984 158.973 291.448 157.67L306.292 115.971C306.576 115.174 307.33 114.642 308.176 114.642H312.13C312.977 114.642 313.732 115.176 314.015 115.974L328.801 157.673C329.262 158.975 328.297 160.341 326.916 160.341H324.963C324.116 160.341 323.361 159.807 323.078 159.008L320.17 150.786ZM316.846 145.24C317.535 145.24 318.017 144.56 317.79 143.909L311.066 124.721C310.753 123.829 309.491 123.829 309.178 124.721L302.454 143.909C302.226 144.56 302.709 145.24 303.398 145.24H316.846Z" fill="white"/>
<path d="M389.424 158.341C389.424 159.446 388.528 160.341 387.424 160.341H384.638C383.959 160.341 383.327 159.997 382.958 159.426L360.842 125.168C360.571 124.749 359.922 124.94 359.922 125.439V158.341C359.922 159.446 359.026 160.341 357.922 160.341H356.047C354.943 160.341 354.047 159.446 354.047 158.341V116.312C354.047 115.208 354.943 114.312 356.047 114.312H358.833C359.512 114.312 360.144 114.657 360.513 115.226L382.629 149.423C382.9 149.841 383.549 149.65 383.549 149.151V116.312C383.549 115.208 384.444 114.312 385.549 114.312H387.424C388.528 114.312 389.424 115.208 389.424 116.312V158.341Z" fill="white"/>
<path d="M426.27 150.786C426.129 150.387 425.751 150.12 425.327 150.12H407.117C406.693 150.12 406.315 150.387 406.174 150.786L403.266 159.008C402.983 159.807 402.228 160.341 401.381 160.341H399.432C398.05 160.341 397.084 158.973 397.548 157.67L412.392 115.971C412.676 115.174 413.43 114.642 414.276 114.642H418.231C419.078 114.642 419.833 115.176 420.116 115.974L434.901 157.673C435.362 158.975 434.397 160.341 433.016 160.341H431.064C430.216 160.341 429.461 159.807 429.178 159.008L426.27 150.786ZM422.946 145.24C423.635 145.24 424.118 144.56 423.89 143.909L417.166 124.721C416.853 123.829 415.591 123.829 415.278 124.721L408.554 143.909C408.327 144.56 408.809 145.24 409.498 145.24H422.946Z" fill="white"/>
<path d="M468.631 114.378C469.736 114.378 470.631 115.274 470.631 116.378V117.258C470.631 118.363 469.736 119.258 468.631 119.258H459.366C458.813 119.258 458.366 119.706 458.366 120.258V158.341C458.366 159.446 457.47 160.341 456.366 160.341H454.491C453.386 160.341 452.491 159.446 452.491 158.341V120.258C452.491 119.706 452.043 119.258 451.491 119.258H442.161C441.056 119.258 440.161 118.363 440.161 117.258V116.378C440.161 115.274 441.056 114.378 442.161 114.378H468.631Z" fill="white"/>
<path d="M481.608 114.378C482.712 114.378 483.608 115.274 483.608 116.378V143.46C483.608 147.548 484.576 150.582 486.513 152.56C488.492 154.538 491.225 155.527 494.711 155.527C498.154 155.527 500.844 154.538 502.781 152.56C504.76 150.582 505.75 147.548 505.75 143.46V116.378C505.75 115.274 506.646 114.378 507.75 114.378H509.625C510.729 114.378 511.625 115.274 511.625 116.378V143.394C511.625 147.218 510.872 150.45 509.365 153.087C507.859 155.681 505.815 157.616 503.232 158.89C500.693 160.165 497.831 160.803 494.647 160.803C491.462 160.803 488.578 160.165 485.996 158.89C483.457 157.616 481.434 155.681 479.928 153.087C478.465 150.45 477.733 147.218 477.733 143.394V116.378C477.733 115.274 478.629 114.378 479.733 114.378H481.608Z" fill="white"/>
<path d="M546.278 160.341C545.56 160.341 544.897 159.956 544.541 159.332L534.688 142.052C534.51 141.74 534.178 141.547 533.819 141.547H528.299C527.747 141.547 527.299 141.995 527.299 142.547V158.341C527.299 159.446 526.404 160.341 525.299 160.341H523.424C522.32 160.341 521.424 159.446 521.424 158.341V116.378C521.424 115.274 522.32 114.378 523.424 114.378H535.949C539.349 114.378 542.211 114.972 544.535 116.159C546.902 117.346 548.667 118.95 549.829 120.973C550.991 122.995 551.572 125.303 551.572 127.897C551.572 131.062 550.668 133.854 548.86 136.272C547.096 138.69 544.428 140.294 540.856 141.086L550.386 157.329C551.168 158.662 550.206 160.341 548.661 160.341H546.278ZM527.299 135.733C527.299 136.286 527.747 136.733 528.299 136.733H535.949C539.134 136.733 541.523 135.942 543.115 134.359C544.707 132.733 545.504 130.579 545.504 127.897C545.504 125.171 544.707 123.061 543.115 121.566C541.566 120.072 539.177 119.324 535.949 119.324H528.299C527.747 119.324 527.299 119.772 527.299 120.324V135.733Z" fill="white"/>
<path d="M587.297 150.12H567.672L564.528 159.008C564.246 159.807 563.49 160.341 562.643 160.341H560.694C559.312 160.341 558.347 158.973 558.81 157.67L573.654 115.971C573.938 115.174 574.692 114.642 575.538 114.642H579.493C580.34 114.642 581.095 115.176 581.378 115.974L596.163 157.673C596.624 158.975 595.659 160.341 594.278 160.341H592.326C591.478 160.341 590.723 159.807 590.44 159.008L587.297 150.12ZM584.208 145.24C584.897 145.24 585.38 144.56 585.152 143.909L578.428 124.721C578.115 123.829 576.853 123.829 576.54 124.721L569.817 143.909C569.589 144.56 570.071 145.24 570.76 145.24H584.208Z" fill="white"/>
<path d="M610.073 154.461C610.073 155.014 610.521 155.461 611.073 155.461H623.825C624.93 155.461 625.825 156.357 625.825 157.461V158.341C625.825 159.446 624.93 160.341 623.825 160.341H606.199C605.094 160.341 604.199 159.446 604.199 158.341V116.378C604.199 115.274 605.094 114.378 606.199 114.378H608.073C609.178 114.378 610.073 115.274 610.073 116.378V154.461Z" fill="white"/>
<path d="M684.651 158.341C684.651 159.446 683.755 160.341 682.651 160.341H679.865C679.186 160.341 678.553 159.997 678.185 159.426L656.069 125.168C655.798 124.749 655.149 124.94 655.149 125.439V158.341C655.149 159.446 654.253 160.341 653.149 160.341H651.274C650.17 160.341 649.274 159.446 649.274 158.341V116.312C649.274 115.208 650.17 114.312 651.274 114.312H654.06C654.739 114.312 655.371 114.657 655.74 115.226L677.856 149.423C678.127 149.841 678.776 149.65 678.776 149.151V116.312C678.776 115.208 679.671 114.312 680.776 114.312H682.651C683.755 114.312 684.651 115.208 684.651 116.312V158.341Z" fill="white"/>
<path d="M715.064 160.803C710.89 160.803 707.081 159.814 703.638 157.835C700.195 155.813 697.462 153.021 695.439 149.46C693.46 145.856 692.47 141.811 692.47 137.327C692.47 132.843 693.46 128.82 695.439 125.259C697.462 121.654 700.195 118.863 703.638 116.884C707.081 114.862 710.89 113.851 715.064 113.851C719.282 113.851 723.112 114.862 726.555 116.884C729.998 118.863 732.709 121.632 734.689 125.193C736.669 128.754 737.658 132.799 737.658 137.327C737.658 141.855 736.669 145.9 734.689 149.46C732.709 153.021 729.998 155.813 726.555 157.835C723.112 159.814 719.282 160.803 715.064 160.803ZM715.064 155.593C718.206 155.593 721.025 154.846 723.521 153.351C726.06 151.856 728.04 149.724 729.46 146.955C730.923 144.185 731.655 140.976 731.655 137.327C731.655 133.634 730.923 130.425 729.46 127.699C728.04 124.929 726.082 122.797 723.585 121.302C721.089 119.808 718.249 119.06 715.064 119.06C711.879 119.06 709.039 119.808 706.543 121.302C704.047 122.797 702.067 124.929 700.604 127.699C699.184 130.425 698.473 133.634 698.473 137.327C698.473 140.976 699.184 144.185 700.604 146.955C702.067 149.724 704.047 151.856 706.543 153.351C709.082 154.846 711.922 155.593 715.064 155.593Z" fill="white"/>
<path d="M770.267 160.341C769.549 160.341 768.886 159.956 768.53 159.332L758.389 141.547H751.288V158.341C751.288 159.446 750.393 160.341 749.288 160.341H747.414C746.309 160.341 745.414 159.446 745.414 158.341V116.378C745.414 115.274 746.309 114.378 747.414 114.378H759.939C763.338 114.378 766.2 114.972 768.524 116.159C770.891 117.346 772.656 118.95 773.818 120.973C774.98 122.995 775.561 125.303 775.561 127.897C775.561 131.062 774.657 133.854 772.85 136.272C771.085 138.69 768.417 140.294 764.845 141.086L774.375 157.329C775.157 158.662 774.196 160.341 772.65 160.341H770.267ZM751.288 135.733C751.288 136.286 751.736 136.733 752.288 136.733H759.939C763.123 136.733 765.512 135.942 767.104 134.359C768.697 132.733 769.493 130.579 769.493 127.897C769.493 125.171 768.697 123.061 767.104 121.566C765.555 120.072 763.166 119.324 759.939 119.324H752.288C751.736 119.324 751.288 119.772 751.288 120.324V135.733Z" fill="white"/>
<path d="M810.383 114.378C811.488 114.378 812.383 115.274 812.383 116.378V117.258C812.383 118.363 811.488 119.258 810.383 119.258H801.118C800.565 119.258 800.118 119.706 800.118 120.258V158.341C800.118 159.446 799.222 160.341 798.118 160.341H796.243C795.139 160.341 794.243 159.446 794.243 158.341V120.258C794.243 119.706 793.795 119.258 793.243 119.258H783.913C782.809 119.258 781.913 118.363 781.913 117.258V116.378C781.913 115.274 782.809 114.378 783.913 114.378H810.383Z" fill="white"/>
<path d="M826.489 119.258C825.937 119.258 825.489 119.706 825.489 120.258V133.623C825.489 134.175 825.937 134.623 826.489 134.623H839.886C840.991 134.623 841.886 135.519 841.886 136.623V137.569C841.886 138.673 840.991 139.569 839.886 139.569H826.489C825.937 139.569 825.489 140.017 825.489 140.569V154.395C825.489 154.948 825.937 155.395 826.489 155.395H841.823C842.927 155.395 843.823 156.291 843.823 157.395V158.341C843.823 159.446 842.927 160.341 841.823 160.341H821.614C820.51 160.341 819.614 159.446 819.614 158.341V116.312C819.614 115.208 820.51 114.312 821.614 114.312H841.823C842.927 114.312 843.823 115.208 843.823 116.312V117.258C843.823 118.363 842.927 119.258 841.823 119.258H826.489Z" fill="white"/>
<path d="M215.764 191.855C215.764 194.302 214.958 196.273 213.347 197.768C211.735 199.264 209.318 200.011 206.095 200.011H200.318V212.165H197.45V183.657H206.095C209.291 183.657 211.694 184.405 213.306 185.9C214.944 187.396 215.764 189.38 215.764 191.855ZM206.095 197.564C210.574 197.564 212.814 195.661 212.814 191.855C212.814 189.951 212.281 188.51 211.216 187.531C210.151 186.553 208.444 186.063 206.095 186.063H200.318V197.564H206.095Z" fill="white"/>
<path d="M234.67 212.45C232.02 212.45 229.617 211.838 227.459 210.615C225.301 209.364 223.594 207.638 222.338 205.435C221.108 203.206 220.494 200.691 220.494 197.89C220.494 195.09 221.108 192.589 222.338 190.386C223.594 188.157 225.301 186.43 227.459 185.207C229.617 183.956 232.02 183.331 234.67 183.331C237.346 183.331 239.763 183.956 241.921 185.207C244.079 186.43 245.772 188.157 247.001 190.386C248.231 192.589 248.845 195.09 248.845 197.89C248.845 200.691 248.231 203.206 247.001 205.435C245.772 207.638 244.079 209.364 241.921 210.615C239.763 211.838 237.346 212.45 234.67 212.45ZM234.67 209.962C236.8 209.962 238.712 209.473 240.405 208.494C242.099 207.515 243.437 206.115 244.42 204.293C245.404 202.445 245.895 200.31 245.895 197.89C245.895 195.471 245.404 193.35 244.42 191.528C243.437 189.707 242.099 188.306 240.405 187.328C238.712 186.349 236.8 185.859 234.67 185.859C232.539 185.859 230.627 186.349 228.934 187.328C227.24 188.306 225.902 189.707 224.919 191.528C223.935 193.35 223.444 195.471 223.444 197.89C223.444 200.31 223.935 202.445 224.919 204.293C225.902 206.115 227.24 207.515 228.934 208.494C230.627 209.473 232.539 209.962 234.67 209.962Z" fill="white"/>
<path d="M272.079 183.657V186.022H264.13V212.165H261.263V186.022H253.273V183.657H272.079Z" fill="white"/>
<path d="M280.704 185.982V196.626H291.561V198.992H280.704V209.799H292.79V212.165H277.836V183.616H292.79V185.982H280.704Z" fill="white"/>
<path d="M321.261 212.165H318.394L302.538 188.184V212.165H299.67V183.657H302.538L318.394 207.597V183.657H321.261V212.165Z" fill="white"/>
<path d="M327.675 197.89C327.675 195.09 328.29 192.589 329.519 190.386C330.748 188.157 332.428 186.43 334.558 185.207C336.689 183.956 339.065 183.331 341.687 183.331C344.883 183.331 347.614 184.092 349.881 185.615C352.175 187.11 353.841 189.231 354.879 191.977H351.52C350.7 190.046 349.444 188.537 347.75 187.45C346.084 186.362 344.063 185.819 341.687 185.819C339.584 185.819 337.685 186.308 335.992 187.287C334.326 188.266 333.015 189.679 332.059 191.528C331.103 193.35 330.625 195.471 330.625 197.89C330.625 200.31 331.103 202.431 332.059 204.253C333.015 206.074 334.326 207.475 335.992 208.453C337.685 209.432 339.584 209.922 341.687 209.922C344.063 209.922 346.084 209.391 347.75 208.331C349.444 207.243 350.7 205.748 351.52 203.845H354.879C353.841 206.564 352.175 208.671 349.881 210.166C347.587 211.662 344.855 212.409 341.687 212.409C339.065 212.409 336.689 211.798 334.558 210.574C332.428 209.323 330.748 207.597 329.519 205.395C328.29 203.192 327.675 200.691 327.675 197.89Z" fill="white"/>
<path d="M364.691 183.657V212.165H361.823V183.657H364.691Z" fill="white"/>
<path d="M389.007 205.395H375.979L373.48 212.165H370.448L380.895 184.024H384.132L394.538 212.165H391.506L389.007 205.395ZM388.147 203.029L382.493 187.613L376.839 203.029H388.147ZM386.303 177.458L377.904 182.311V180.109L386.303 174.889V177.458Z" fill="white"/>
<path d="M429.598 183.657V186.022H421.65V212.165H418.782V186.022H410.793V183.657H429.598Z" fill="white"/>
<path d="M438.101 183.657V201.602C438.101 204.429 438.77 206.523 440.109 207.882C441.474 209.242 443.332 209.922 445.68 209.922C448.029 209.922 449.859 209.255 451.17 207.923C452.509 206.564 453.178 204.457 453.178 201.602V183.657H456.046V201.561C456.046 205.177 455.076 207.896 453.137 209.718C451.225 211.539 448.726 212.45 445.64 212.45C442.553 212.45 440.04 211.539 438.101 209.718C436.189 207.896 435.233 205.177 435.233 201.561V183.657H438.101Z" fill="white"/>
<path d="M479.011 185.982V196.626H489.868V198.992H479.011V209.799H491.098V212.165H476.144V183.616H491.098V185.982H479.011Z" fill="white"/>
<path d="M506.663 212.45C504.779 212.45 503.113 212.124 501.665 211.471C500.245 210.819 499.125 209.908 498.305 208.739C497.486 207.57 497.049 206.265 496.994 204.824H500.026C500.163 206.21 500.777 207.434 501.87 208.494C502.962 209.527 504.56 210.044 506.663 210.044C508.603 210.044 510.132 209.555 511.252 208.576C512.399 207.57 512.973 206.305 512.973 204.783C512.973 203.559 512.659 202.581 512.03 201.846C511.402 201.085 510.624 200.528 509.695 200.174C508.766 199.794 507.483 199.386 505.844 198.951C503.932 198.434 502.416 197.931 501.296 197.442C500.176 196.952 499.22 196.191 498.428 195.158C497.636 194.125 497.24 192.725 497.24 190.957C497.24 189.489 497.623 188.184 498.387 187.042C499.152 185.873 500.231 184.962 501.624 184.31C503.017 183.657 504.615 183.331 506.417 183.331C509.067 183.331 511.197 183.983 512.809 185.288C514.448 186.566 515.39 188.225 515.636 190.264H512.522C512.331 189.095 511.689 188.062 510.596 187.164C509.504 186.24 508.029 185.778 506.172 185.778C504.451 185.778 503.017 186.24 501.87 187.164C500.723 188.062 500.149 189.299 500.149 190.876C500.149 192.072 500.463 193.037 501.091 193.771C501.72 194.505 502.498 195.063 503.427 195.443C504.383 195.824 505.666 196.232 507.278 196.667C509.135 197.184 510.637 197.7 511.785 198.217C512.932 198.706 513.901 199.467 514.693 200.501C515.485 201.534 515.882 202.92 515.882 204.661C515.882 205.993 515.526 207.257 514.816 208.453C514.106 209.65 513.055 210.615 511.662 211.349C510.269 212.083 508.603 212.45 506.663 212.45Z" fill="white"/>
<path d="M540.966 191.855C540.966 194.302 540.16 196.273 538.549 197.768C536.937 199.264 534.52 200.011 531.297 200.011H525.52V212.165H522.652V183.657H531.297C534.493 183.657 536.896 184.405 538.508 185.9C540.147 187.396 540.966 189.38 540.966 191.855ZM531.297 197.564C535.776 197.564 538.016 195.661 538.016 191.855C538.016 189.951 537.484 188.51 536.418 187.531C535.353 186.553 533.646 186.063 531.297 186.063H525.52V197.564H531.297Z" fill="white"/>
<path d="M563.6 205.395H550.572L548.072 212.165H545.041L555.488 184.024H558.725L569.131 212.165H566.099L563.6 205.395ZM562.74 203.029L557.086 187.613L551.432 203.029H562.74Z" fill="white"/>
<path d="M573.652 197.89C573.652 195.09 574.266 192.589 575.495 190.386C576.724 188.157 578.404 186.43 580.535 185.207C582.665 183.956 585.041 183.331 587.663 183.331C590.859 183.331 593.59 184.092 595.857 185.615C598.152 187.11 599.818 189.231 600.856 191.977H597.496C596.677 190.046 595.42 188.537 593.727 187.45C592.061 186.362 590.04 185.819 587.663 185.819C585.56 185.819 583.662 186.308 581.969 187.287C580.303 188.266 578.991 189.679 578.036 191.528C577.08 193.35 576.602 195.471 576.602 197.89C576.602 200.31 577.08 202.431 578.036 204.253C578.991 206.074 580.303 207.475 581.969 208.453C583.662 209.432 585.56 209.922 587.663 209.922C590.04 209.922 592.061 209.391 593.727 208.331C595.42 207.243 596.677 205.748 597.496 203.845H600.856C599.818 206.564 598.152 208.671 595.857 210.166C593.563 211.662 590.832 212.409 587.663 212.409C585.041 212.409 582.665 211.798 580.535 210.574C578.404 209.323 576.724 207.597 575.495 205.395C574.266 203.192 573.652 200.691 573.652 197.89Z" fill="white"/>
<path d="M610.667 183.657V212.165H607.8V183.657H610.667Z" fill="white"/>
<path d="M631.255 212.45C628.606 212.45 626.203 211.838 624.045 210.615C621.887 209.364 620.18 207.638 618.924 205.435C617.694 203.206 617.08 200.691 617.08 197.89C617.08 195.09 617.694 192.589 618.924 190.386C620.18 188.157 621.887 186.43 624.045 185.207C626.203 183.956 628.606 183.331 631.255 183.331C633.932 183.331 636.349 183.956 638.507 185.207C640.665 186.43 642.358 188.157 643.587 190.386C644.817 192.589 645.431 195.09 645.431 197.89C645.431 200.691 644.817 203.206 643.587 205.435C642.358 207.638 640.665 209.364 638.507 210.615C636.349 211.838 633.932 212.45 631.255 212.45ZM631.255 209.962C633.386 209.962 635.298 209.473 636.991 208.494C638.685 207.515 640.023 206.115 641.006 204.293C641.99 202.445 642.481 200.31 642.481 197.89C642.481 195.471 641.99 193.35 641.006 191.528C640.023 189.707 638.685 188.306 636.991 187.328C635.298 186.349 633.386 185.859 631.255 185.859C629.125 185.859 627.213 186.349 625.52 187.328C623.826 188.306 622.488 189.707 621.505 191.528C620.521 193.35 620.03 195.471 620.03 197.89C620.03 200.31 620.521 202.445 621.505 204.293C622.488 206.115 623.826 207.515 625.52 208.494C627.213 209.473 629.125 209.962 631.255 209.962Z" fill="white"/>
<path d="M667.248 185.982V196.626H678.105V198.992H667.248V209.799H679.334V212.165H664.38V183.616H679.334V185.982H667.248Z" fill="white"/>
<path d="M696.538 197.931L705.224 212.165H702.028L694.736 200.256L687.812 212.165H684.616L693.261 197.809L684.616 183.657H687.812L695.063 195.525L702.069 183.657H705.265L696.538 197.931Z" fill="white"/>
<path d="M728.165 183.657V186.022H720.217V212.165H717.349V186.022H709.36V183.657H728.165Z" fill="white"/>
<path d="M736.791 185.982V196.626H747.648V198.992H736.791V209.799H748.877V212.165H733.923V183.616H748.877V185.982H736.791Z" fill="white"/>
<path d="M770.998 212.165L763.91 200.256H758.625V212.165H755.757V183.657H764.361C767.556 183.657 769.974 184.418 771.612 185.941C773.279 187.464 774.112 189.462 774.112 191.936C774.112 194.002 773.511 195.77 772.309 197.238C771.134 198.679 769.386 199.617 767.065 200.052L774.439 212.165H770.998ZM758.625 197.931H764.402C766.641 197.931 768.321 197.387 769.441 196.3C770.588 195.212 771.162 193.758 771.162 191.936C771.162 190.06 770.616 188.619 769.523 187.613C768.43 186.58 766.71 186.063 764.361 186.063H758.625V197.931Z" fill="white"/>
<path d="M783.9 183.657V212.165H781.032V183.657H783.9Z" fill="white"/>
<path d="M804.488 212.45C801.839 212.45 799.435 211.838 797.277 210.615C795.119 209.364 793.412 207.638 792.156 205.435C790.927 203.206 790.312 200.691 790.312 197.89C790.312 195.09 790.927 192.589 792.156 190.386C793.412 188.157 795.119 186.43 797.277 185.207C799.435 183.956 801.839 183.331 804.488 183.331C807.165 183.331 809.582 183.956 811.74 185.207C813.897 186.43 815.591 188.157 816.82 190.386C818.049 192.589 818.664 195.09 818.664 197.89C818.664 200.691 818.049 203.206 816.82 205.435C815.591 207.638 813.897 209.364 811.74 210.615C809.582 211.838 807.165 212.45 804.488 212.45ZM804.488 209.962C806.618 209.962 808.53 209.473 810.224 208.494C811.917 207.515 813.256 206.115 814.239 204.293C815.222 202.445 815.714 200.31 815.714 197.89C815.714 195.471 815.222 193.35 814.239 191.528C813.256 189.707 811.917 188.306 810.224 187.328C808.53 186.349 806.618 185.859 804.488 185.859C802.358 185.859 800.446 186.349 798.752 187.328C797.059 188.306 795.72 189.707 794.737 191.528C793.754 193.35 793.262 195.471 793.262 197.89C793.262 200.31 793.754 202.445 794.737 204.293C795.72 206.115 797.059 207.515 798.752 208.494C800.446 209.473 802.358 209.962 804.488 209.962Z" fill="white"/>
<path d="M840.381 212.165L833.293 200.256H828.008V212.165H825.14V183.657H833.744C836.94 183.657 839.357 184.418 840.996 185.941C842.662 187.464 843.495 189.462 843.495 191.936C843.495 194.002 842.894 195.77 841.692 197.238C840.518 198.679 838.77 199.617 836.448 200.052L843.823 212.165H840.381ZM828.008 197.931H833.785C836.025 197.931 837.704 197.387 838.824 196.3C839.971 195.212 840.545 193.758 840.545 191.936C840.545 190.06 839.999 188.619 838.906 187.613C837.814 186.58 836.093 186.063 833.744 186.063H828.008V197.931Z" fill="white"/>
</svg>
